<mxfile host="app.diagrams.net" agent="Mozilla/5.0 (Windows NT 10.0; Win64; x64) AppleWebKit/537.36 (KHTML, like Gecko) Chrome/131.0.0.0 Safari/537.36" version="26.0.3">
  <diagram name="Page-1" id="pEeFP1r-65gt3fi-jsRC">
    <mxGraphModel dx="880" dy="468" grid="1" gridSize="12" guides="1" tooltips="1" connect="1" arrows="1" fold="1" page="1" pageScale="1" pageWidth="827" pageHeight="1169" math="0" shadow="0">
      <root>
        <mxCell id="0" />
        <mxCell id="1" parent="0" />
        <mxCell id="iPlDq5f54EyEh53JWQ_J-1" value="" style="rounded=0;whiteSpace=wrap;html=1;" vertex="1" parent="1">
          <mxGeometry x="180" y="140" width="110" height="30" as="geometry" />
        </mxCell>
        <mxCell id="iPlDq5f54EyEh53JWQ_J-2" value="Test-Result" style="rounded=0;whiteSpace=wrap;html=1;" vertex="1" parent="1">
          <mxGeometry x="405" y="450" width="110" height="30" as="geometry" />
        </mxCell>
        <mxCell id="iPlDq5f54EyEh53JWQ_J-3" value="performce Analysis" style="rounded=0;whiteSpace=wrap;html=1;" vertex="1" parent="1">
          <mxGeometry x="140" y="440" width="110" height="30" as="geometry" />
        </mxCell>
        <mxCell id="iPlDq5f54EyEh53JWQ_J-4" value="Test&amp;nbsp;" style="rounded=0;whiteSpace=wrap;html=1;" vertex="1" parent="1">
          <mxGeometry x="675" y="480" width="110" height="30" as="geometry" />
        </mxCell>
        <mxCell id="iPlDq5f54EyEh53JWQ_J-5" value="Question" style="rounded=0;whiteSpace=wrap;html=1;" vertex="1" parent="1">
          <mxGeometry x="650" y="330" width="110" height="30" as="geometry" />
        </mxCell>
        <mxCell id="iPlDq5f54EyEh53JWQ_J-6" value="Role" style="rounded=0;whiteSpace=wrap;html=1;" vertex="1" parent="1">
          <mxGeometry x="650" y="140" width="110" height="30" as="geometry" />
        </mxCell>
        <mxCell id="iPlDq5f54EyEh53JWQ_J-7" value="users" style="text;html=1;align=center;verticalAlign=middle;whiteSpace=wrap;rounded=0;" vertex="1" parent="1">
          <mxGeometry x="180" y="140" width="110" height="30" as="geometry" />
        </mxCell>
        <mxCell id="iPlDq5f54EyEh53JWQ_J-8" value="user_id" style="ellipse;whiteSpace=wrap;html=1;" vertex="1" parent="1">
          <mxGeometry x="180" y="50" width="120" height="50" as="geometry" />
        </mxCell>
        <mxCell id="iPlDq5f54EyEh53JWQ_J-9" value="name" style="ellipse;whiteSpace=wrap;html=1;" vertex="1" parent="1">
          <mxGeometry x="70" y="80" width="110" height="40" as="geometry" />
        </mxCell>
        <mxCell id="iPlDq5f54EyEh53JWQ_J-10" value="email" style="ellipse;whiteSpace=wrap;html=1;" vertex="1" parent="1">
          <mxGeometry x="10" y="130" width="120" height="50" as="geometry" />
        </mxCell>
        <mxCell id="iPlDq5f54EyEh53JWQ_J-11" value="password" style="ellipse;whiteSpace=wrap;html=1;" vertex="1" parent="1">
          <mxGeometry y="190" width="120" height="50" as="geometry" />
        </mxCell>
        <mxCell id="iPlDq5f54EyEh53JWQ_J-12" value="role_id" style="ellipse;whiteSpace=wrap;html=1;" vertex="1" parent="1">
          <mxGeometry x="90" y="240" width="120" height="50" as="geometry" />
        </mxCell>
        <mxCell id="iPlDq5f54EyEh53JWQ_J-14" value="" style="endArrow=none;html=1;rounded=0;entryX=0.608;entryY=1.06;entryDx=0;entryDy=0;entryPerimeter=0;exitX=0.663;exitY=0;exitDx=0;exitDy=0;exitPerimeter=0;" edge="1" parent="1" source="iPlDq5f54EyEh53JWQ_J-7" target="iPlDq5f54EyEh53JWQ_J-8">
          <mxGeometry width="50" height="50" relative="1" as="geometry">
            <mxPoint x="400" y="280" as="sourcePoint" />
            <mxPoint x="450" y="230" as="targetPoint" />
          </mxGeometry>
        </mxCell>
        <mxCell id="iPlDq5f54EyEh53JWQ_J-16" value="" style="endArrow=none;html=1;rounded=0;exitX=0.708;exitY=0.04;exitDx=0;exitDy=0;exitPerimeter=0;" edge="1" parent="1" source="iPlDq5f54EyEh53JWQ_J-12" target="iPlDq5f54EyEh53JWQ_J-7">
          <mxGeometry width="50" height="50" relative="1" as="geometry">
            <mxPoint x="400" y="280" as="sourcePoint" />
            <mxPoint x="220" y="174" as="targetPoint" />
          </mxGeometry>
        </mxCell>
        <mxCell id="iPlDq5f54EyEh53JWQ_J-17" value="" style="endArrow=none;html=1;rounded=0;exitX=0.983;exitY=0.34;exitDx=0;exitDy=0;exitPerimeter=0;" edge="1" parent="1" source="iPlDq5f54EyEh53JWQ_J-11">
          <mxGeometry width="50" height="50" relative="1" as="geometry">
            <mxPoint x="185" y="252" as="sourcePoint" />
            <mxPoint x="190" y="170" as="targetPoint" />
          </mxGeometry>
        </mxCell>
        <mxCell id="iPlDq5f54EyEh53JWQ_J-18" value="" style="endArrow=none;html=1;rounded=0;exitX=1;exitY=1;exitDx=0;exitDy=0;entryX=0;entryY=0.75;entryDx=0;entryDy=0;" edge="1" parent="1" source="iPlDq5f54EyEh53JWQ_J-10" target="iPlDq5f54EyEh53JWQ_J-7">
          <mxGeometry width="50" height="50" relative="1" as="geometry">
            <mxPoint x="400" y="280" as="sourcePoint" />
            <mxPoint x="450" y="230" as="targetPoint" />
          </mxGeometry>
        </mxCell>
        <mxCell id="iPlDq5f54EyEh53JWQ_J-19" value="" style="endArrow=none;html=1;rounded=0;exitX=1;exitY=1;exitDx=0;exitDy=0;entryX=0;entryY=0;entryDx=0;entryDy=0;" edge="1" parent="1" source="iPlDq5f54EyEh53JWQ_J-9" target="iPlDq5f54EyEh53JWQ_J-7">
          <mxGeometry width="50" height="50" relative="1" as="geometry">
            <mxPoint x="400" y="280" as="sourcePoint" />
            <mxPoint x="450" y="230" as="targetPoint" />
          </mxGeometry>
        </mxCell>
        <mxCell id="iPlDq5f54EyEh53JWQ_J-20" value="role_id" style="ellipse;whiteSpace=wrap;html=1;" vertex="1" parent="1">
          <mxGeometry x="580" y="50" width="120" height="50" as="geometry" />
        </mxCell>
        <mxCell id="iPlDq5f54EyEh53JWQ_J-21" value="role_name" style="ellipse;whiteSpace=wrap;html=1;" vertex="1" parent="1">
          <mxGeometry x="720" y="50" width="120" height="50" as="geometry" />
        </mxCell>
        <mxCell id="iPlDq5f54EyEh53JWQ_J-23" value="" style="endArrow=none;html=1;rounded=0;entryX=0.425;entryY=1.04;entryDx=0;entryDy=0;entryPerimeter=0;exitX=0.073;exitY=-0.067;exitDx=0;exitDy=0;exitPerimeter=0;" edge="1" parent="1" source="iPlDq5f54EyEh53JWQ_J-6" target="iPlDq5f54EyEh53JWQ_J-20">
          <mxGeometry width="50" height="50" relative="1" as="geometry">
            <mxPoint x="400" y="280" as="sourcePoint" />
            <mxPoint x="450" y="230" as="targetPoint" />
          </mxGeometry>
        </mxCell>
        <mxCell id="iPlDq5f54EyEh53JWQ_J-24" value="" style="endArrow=none;html=1;rounded=0;entryX=0.292;entryY=1;entryDx=0;entryDy=0;entryPerimeter=0;exitX=0.636;exitY=-0.1;exitDx=0;exitDy=0;exitPerimeter=0;" edge="1" parent="1" source="iPlDq5f54EyEh53JWQ_J-6" target="iPlDq5f54EyEh53JWQ_J-21">
          <mxGeometry width="50" height="50" relative="1" as="geometry">
            <mxPoint x="400" y="280" as="sourcePoint" />
            <mxPoint x="450" y="230" as="targetPoint" />
          </mxGeometry>
        </mxCell>
        <mxCell id="iPlDq5f54EyEh53JWQ_J-26" value="manage&amp;nbsp;" style="rhombus;whiteSpace=wrap;html=1;" vertex="1" parent="1">
          <mxGeometry x="420" y="115" width="80" height="80" as="geometry" />
        </mxCell>
        <mxCell id="iPlDq5f54EyEh53JWQ_J-33" value="question_id" style="ellipse;whiteSpace=wrap;html=1;" vertex="1" parent="1">
          <mxGeometry x="810" y="310" width="90" height="40" as="geometry" />
        </mxCell>
        <mxCell id="iPlDq5f54EyEh53JWQ_J-35" value="text&lt;span style=&quot;color: rgba(0, 0, 0, 0); font-family: monospace; font-size: 0px; text-align: start; text-wrap-mode: nowrap;&quot;&gt;%3CmxGraphModel%3E%3Croot%3E%3CmxCell%20id%3D%220%22%2F%3E%3CmxCell%20id%3D%221%22%20parent%3D%220%22%2F%3E%3CmxCell%20id%3D%222%22%20value%3D%22role_id%22%20style%3D%22ellipse%3BwhiteSpace%3Dwrap%3Bhtml%3D1%3B%22%20vertex%3D%221%22%20parent%3D%221%22%3E%3CmxGeometry%20x%3D%2290%22%20y%3D%22240%22%20width%3D%22120%22%20height%3D%2250%22%20as%3D%22geometry%22%2F%3E%3C%2FmxCell%3E%3C%2Froot%3E%3C%2FmxGraphModel%3E&lt;/span&gt;" style="ellipse;whiteSpace=wrap;html=1;" vertex="1" parent="1">
          <mxGeometry x="785" y="260" width="100" height="40" as="geometry" />
        </mxCell>
        <mxCell id="iPlDq5f54EyEh53JWQ_J-36" value="correct_answer" style="ellipse;whiteSpace=wrap;html=1;" vertex="1" parent="1">
          <mxGeometry x="790" y="360" width="90" height="50" as="geometry" />
        </mxCell>
        <mxCell id="iPlDq5f54EyEh53JWQ_J-37" value="difficult_level" style="ellipse;whiteSpace=wrap;html=1;" vertex="1" parent="1">
          <mxGeometry x="680" y="230" width="120" height="50" as="geometry" />
        </mxCell>
        <mxCell id="iPlDq5f54EyEh53JWQ_J-38" value="" style="endArrow=none;html=1;rounded=0;entryX=0.75;entryY=0;entryDx=0;entryDy=0;" edge="1" parent="1" source="iPlDq5f54EyEh53JWQ_J-37" target="iPlDq5f54EyEh53JWQ_J-5">
          <mxGeometry width="50" height="50" relative="1" as="geometry">
            <mxPoint x="400" y="380" as="sourcePoint" />
            <mxPoint x="720" y="360" as="targetPoint" />
          </mxGeometry>
        </mxCell>
        <mxCell id="iPlDq5f54EyEh53JWQ_J-39" value="" style="endArrow=none;html=1;rounded=0;entryX=0.845;entryY=-0.133;entryDx=0;entryDy=0;entryPerimeter=0;" edge="1" parent="1" target="iPlDq5f54EyEh53JWQ_J-5">
          <mxGeometry width="50" height="50" relative="1" as="geometry">
            <mxPoint x="810" y="300" as="sourcePoint" />
            <mxPoint x="650" y="388" as="targetPoint" />
            <Array as="points">
              <mxPoint x="810" y="300" />
            </Array>
          </mxGeometry>
        </mxCell>
        <mxCell id="iPlDq5f54EyEh53JWQ_J-40" value="" style="endArrow=none;html=1;rounded=0;entryX=1;entryY=0;entryDx=0;entryDy=0;exitX=0;exitY=0.75;exitDx=0;exitDy=0;exitPerimeter=0;" edge="1" parent="1" source="iPlDq5f54EyEh53JWQ_J-33" target="iPlDq5f54EyEh53JWQ_J-5">
          <mxGeometry width="50" height="50" relative="1" as="geometry">
            <mxPoint x="605" y="365" as="sourcePoint" />
            <mxPoint x="660" y="398" as="targetPoint" />
          </mxGeometry>
        </mxCell>
        <mxCell id="iPlDq5f54EyEh53JWQ_J-41" value="" style="endArrow=none;html=1;rounded=0;entryX=1;entryY=0.75;entryDx=0;entryDy=0;exitX=0.022;exitY=0.66;exitDx=0;exitDy=0;exitPerimeter=0;" edge="1" parent="1" source="iPlDq5f54EyEh53JWQ_J-36" target="iPlDq5f54EyEh53JWQ_J-5">
          <mxGeometry width="50" height="50" relative="1" as="geometry">
            <mxPoint x="615" y="375" as="sourcePoint" />
            <mxPoint x="670" y="408" as="targetPoint" />
          </mxGeometry>
        </mxCell>
        <mxCell id="iPlDq5f54EyEh53JWQ_J-42" value="test_id" style="ellipse;whiteSpace=wrap;html=1;" vertex="1" parent="1">
          <mxGeometry x="790" y="430" width="90" height="30" as="geometry" />
        </mxCell>
        <mxCell id="iPlDq5f54EyEh53JWQ_J-44" value="test_id" style="ellipse;whiteSpace=wrap;html=1;" vertex="1" parent="1">
          <mxGeometry x="820" y="470" width="90" height="30" as="geometry" />
        </mxCell>
        <mxCell id="iPlDq5f54EyEh53JWQ_J-45" value="test_id" style="ellipse;whiteSpace=wrap;html=1;" vertex="1" parent="1">
          <mxGeometry x="800" y="510" width="90" height="30" as="geometry" />
        </mxCell>
        <mxCell id="iPlDq5f54EyEh53JWQ_J-46" value="test_id" style="ellipse;whiteSpace=wrap;html=1;" vertex="1" parent="1">
          <mxGeometry x="695" y="420" width="90" height="30" as="geometry" />
        </mxCell>
        <mxCell id="iPlDq5f54EyEh53JWQ_J-47" value="" style="endArrow=none;html=1;rounded=0;entryX=0.5;entryY=0;entryDx=0;entryDy=0;exitX=0.5;exitY=1;exitDx=0;exitDy=0;" edge="1" parent="1" source="iPlDq5f54EyEh53JWQ_J-46" target="iPlDq5f54EyEh53JWQ_J-4">
          <mxGeometry width="50" height="50" relative="1" as="geometry">
            <mxPoint x="630" y="380" as="sourcePoint" />
            <mxPoint x="680" y="330" as="targetPoint" />
          </mxGeometry>
        </mxCell>
        <mxCell id="iPlDq5f54EyEh53JWQ_J-48" value="" style="endArrow=none;html=1;rounded=0;entryX=0.75;entryY=0;entryDx=0;entryDy=0;" edge="1" parent="1" source="iPlDq5f54EyEh53JWQ_J-42" target="iPlDq5f54EyEh53JWQ_J-4">
          <mxGeometry width="50" height="50" relative="1" as="geometry">
            <mxPoint x="750" y="460" as="sourcePoint" />
            <mxPoint x="725" y="510" as="targetPoint" />
          </mxGeometry>
        </mxCell>
        <mxCell id="iPlDq5f54EyEh53JWQ_J-49" value="" style="endArrow=none;html=1;rounded=0;entryX=1;entryY=0;entryDx=0;entryDy=0;" edge="1" parent="1" target="iPlDq5f54EyEh53JWQ_J-4">
          <mxGeometry width="50" height="50" relative="1" as="geometry">
            <mxPoint x="823" y="480" as="sourcePoint" />
            <mxPoint x="753" y="510" as="targetPoint" />
          </mxGeometry>
        </mxCell>
        <mxCell id="iPlDq5f54EyEh53JWQ_J-50" value="" style="endArrow=none;html=1;rounded=0;entryX=1;entryY=0.25;entryDx=0;entryDy=0;exitX=0.044;exitY=0.3;exitDx=0;exitDy=0;exitPerimeter=0;" edge="1" parent="1" source="iPlDq5f54EyEh53JWQ_J-45" target="iPlDq5f54EyEh53JWQ_J-4">
          <mxGeometry width="50" height="50" relative="1" as="geometry">
            <mxPoint x="833" y="490" as="sourcePoint" />
            <mxPoint x="780" y="510" as="targetPoint" />
          </mxGeometry>
        </mxCell>
        <mxCell id="iPlDq5f54EyEh53JWQ_J-52" value="user_id" style="ellipse;whiteSpace=wrap;html=1;" vertex="1" parent="1">
          <mxGeometry x="80" y="500" width="70" height="30" as="geometry" />
        </mxCell>
        <mxCell id="iPlDq5f54EyEh53JWQ_J-53" value="avarage score" style="ellipse;whiteSpace=wrap;html=1;" vertex="1" parent="1">
          <mxGeometry x="165" y="500" width="80" height="30" as="geometry" />
        </mxCell>
        <mxCell id="iPlDq5f54EyEh53JWQ_J-55" value="analysis_id" style="ellipse;whiteSpace=wrap;html=1;" vertex="1" parent="1">
          <mxGeometry x="50" y="460" width="80" height="30" as="geometry" />
        </mxCell>
        <mxCell id="iPlDq5f54EyEh53JWQ_J-56" value="" style="endArrow=none;html=1;rounded=0;entryX=0.5;entryY=0;entryDx=0;entryDy=0;exitX=0.655;exitY=0.967;exitDx=0;exitDy=0;exitPerimeter=0;" edge="1" parent="1" source="iPlDq5f54EyEh53JWQ_J-3" target="iPlDq5f54EyEh53JWQ_J-53">
          <mxGeometry width="50" height="50" relative="1" as="geometry">
            <mxPoint x="460" y="380" as="sourcePoint" />
            <mxPoint x="510" y="330" as="targetPoint" />
          </mxGeometry>
        </mxCell>
        <mxCell id="iPlDq5f54EyEh53JWQ_J-57" value="" style="endArrow=none;html=1;rounded=0;exitX=0.5;exitY=1;exitDx=0;exitDy=0;" edge="1" parent="1" source="iPlDq5f54EyEh53JWQ_J-3" target="iPlDq5f54EyEh53JWQ_J-52">
          <mxGeometry width="50" height="50" relative="1" as="geometry">
            <mxPoint x="487" y="469" as="sourcePoint" />
            <mxPoint x="510" y="520" as="targetPoint" />
          </mxGeometry>
        </mxCell>
        <mxCell id="iPlDq5f54EyEh53JWQ_J-58" value="" style="endArrow=none;html=1;rounded=0;exitX=0.109;exitY=1;exitDx=0;exitDy=0;entryX=1;entryY=0.5;entryDx=0;entryDy=0;exitPerimeter=0;" edge="1" parent="1" source="iPlDq5f54EyEh53JWQ_J-3" target="iPlDq5f54EyEh53JWQ_J-55">
          <mxGeometry width="50" height="50" relative="1" as="geometry">
            <mxPoint x="470" y="470" as="sourcePoint" />
            <mxPoint x="427" y="521" as="targetPoint" />
          </mxGeometry>
        </mxCell>
        <mxCell id="iPlDq5f54EyEh53JWQ_J-59" value="timestam&lt;span style=&quot;background-color: transparent; color: light-dark(rgb(0, 0, 0), rgb(255, 255, 255));&quot;&gt;p&lt;/span&gt;" style="ellipse;whiteSpace=wrap;html=1;" vertex="1" parent="1">
          <mxGeometry x="530" y="500" width="80" height="30" as="geometry" />
        </mxCell>
        <mxCell id="iPlDq5f54EyEh53JWQ_J-60" value="score" style="ellipse;whiteSpace=wrap;html=1;" vertex="1" parent="1">
          <mxGeometry x="470" y="530" width="80" height="30" as="geometry" />
        </mxCell>
        <mxCell id="iPlDq5f54EyEh53JWQ_J-61" value="user_id" style="ellipse;whiteSpace=wrap;html=1;" vertex="1" parent="1">
          <mxGeometry x="390" y="530" width="80" height="40" as="geometry" />
        </mxCell>
        <mxCell id="iPlDq5f54EyEh53JWQ_J-62" value="test_id" style="ellipse;whiteSpace=wrap;html=1;" vertex="1" parent="1">
          <mxGeometry x="300" y="540" width="80" height="30" as="geometry" />
        </mxCell>
        <mxCell id="iPlDq5f54EyEh53JWQ_J-63" value="role_id" style="ellipse;whiteSpace=wrap;html=1;" vertex="1" parent="1">
          <mxGeometry x="270" y="500" width="80" height="30" as="geometry" />
        </mxCell>
        <mxCell id="iPlDq5f54EyEh53JWQ_J-64" value="" style="endArrow=none;html=1;rounded=0;entryX=0;entryY=0.25;entryDx=0;entryDy=0;" edge="1" parent="1" source="iPlDq5f54EyEh53JWQ_J-63" target="iPlDq5f54EyEh53JWQ_J-2">
          <mxGeometry width="50" height="50" relative="1" as="geometry">
            <mxPoint x="460" y="390" as="sourcePoint" />
            <mxPoint x="510" y="340" as="targetPoint" />
          </mxGeometry>
        </mxCell>
        <mxCell id="iPlDq5f54EyEh53JWQ_J-65" value="" style="endArrow=none;html=1;rounded=0;entryX=0.109;entryY=0.967;entryDx=0;entryDy=0;entryPerimeter=0;" edge="1" parent="1" source="iPlDq5f54EyEh53JWQ_J-62" target="iPlDq5f54EyEh53JWQ_J-2">
          <mxGeometry width="50" height="50" relative="1" as="geometry">
            <mxPoint x="380" y="466" as="sourcePoint" />
            <mxPoint x="415" y="468" as="targetPoint" />
          </mxGeometry>
        </mxCell>
        <mxCell id="iPlDq5f54EyEh53JWQ_J-66" value="" style="endArrow=none;html=1;rounded=0;entryX=0.318;entryY=1.033;entryDx=0;entryDy=0;exitX=0.613;exitY=0;exitDx=0;exitDy=0;exitPerimeter=0;entryPerimeter=0;" edge="1" parent="1" source="iPlDq5f54EyEh53JWQ_J-61" target="iPlDq5f54EyEh53JWQ_J-2">
          <mxGeometry width="50" height="50" relative="1" as="geometry">
            <mxPoint x="390" y="476" as="sourcePoint" />
            <mxPoint x="425" y="478" as="targetPoint" />
          </mxGeometry>
        </mxCell>
        <mxCell id="iPlDq5f54EyEh53JWQ_J-67" value="" style="endArrow=none;html=1;rounded=0;entryX=0.5;entryY=0;entryDx=0;entryDy=0;exitX=0.5;exitY=1;exitDx=0;exitDy=0;" edge="1" parent="1" source="iPlDq5f54EyEh53JWQ_J-2" target="iPlDq5f54EyEh53JWQ_J-60">
          <mxGeometry width="50" height="50" relative="1" as="geometry">
            <mxPoint x="400" y="486" as="sourcePoint" />
            <mxPoint x="480" y="530" as="targetPoint" />
          </mxGeometry>
        </mxCell>
        <mxCell id="iPlDq5f54EyEh53JWQ_J-68" value="" style="endArrow=none;html=1;rounded=0;entryX=0.363;entryY=-0.1;entryDx=0;entryDy=0;entryPerimeter=0;" edge="1" parent="1" target="iPlDq5f54EyEh53JWQ_J-59">
          <mxGeometry width="50" height="50" relative="1" as="geometry">
            <mxPoint x="490" y="482" as="sourcePoint" />
            <mxPoint x="445" y="498" as="targetPoint" />
          </mxGeometry>
        </mxCell>
        <mxCell id="iPlDq5f54EyEh53JWQ_J-70" value="manage&amp;nbsp;" style="rhombus;whiteSpace=wrap;html=1;" vertex="1" parent="1">
          <mxGeometry x="195" y="300" width="80" height="80" as="geometry" />
        </mxCell>
        <mxCell id="iPlDq5f54EyEh53JWQ_J-72" value="" style="edgeStyle=entityRelationEdgeStyle;fontSize=12;html=1;endArrow=ERoneToMany;rounded=0;exitX=0;exitY=0.5;exitDx=0;exitDy=0;entryX=1;entryY=0.75;entryDx=0;entryDy=0;" edge="1" parent="1" source="iPlDq5f54EyEh53JWQ_J-26" target="iPlDq5f54EyEh53JWQ_J-7">
          <mxGeometry width="100" height="100" relative="1" as="geometry">
            <mxPoint x="440" y="240" as="sourcePoint" />
            <mxPoint x="540" y="340" as="targetPoint" />
          </mxGeometry>
        </mxCell>
        <mxCell id="iPlDq5f54EyEh53JWQ_J-73" value="" style="endArrow=none;html=1;rounded=0;exitX=0;exitY=0.5;exitDx=0;exitDy=0;entryX=1;entryY=0.5;entryDx=0;entryDy=0;" edge="1" parent="1" source="iPlDq5f54EyEh53JWQ_J-6" target="iPlDq5f54EyEh53JWQ_J-26">
          <mxGeometry relative="1" as="geometry">
            <mxPoint x="408" y="288" as="sourcePoint" />
            <mxPoint x="568" y="288" as="targetPoint" />
          </mxGeometry>
        </mxCell>
      </root>
    </mxGraphModel>
  </diagram>
</mxfile>
